# Blender v2.80 (sub 75) OBJ File: ''
# www.blender.org
mtllib leg_left.mtl
o cockroach_Mesh.003
v 0.001467 -0.000009 0.002359
v 0.001467 -0.000009 0.002359
v 0.001467 -0.000009 0.002359
v 0.001467 -0.000009 0.002359
v 0.001467 -0.000009 0.002359
v 0.231893 -0.092612 0.032363
v 0.252290 -0.093953 0.038637
v 0.249396 -0.094334 0.031648
v 0.232453 -0.092178 0.024951
v 0.230627 -0.094130 0.039217
v 0.250987 -0.095567 0.044207
v 0.203357 -0.090673 0.020480
v 0.201733 -0.092110 0.028812
v 0.204725 -0.089379 0.013061
v 0.204373 -0.092046 0.002646
v 0.202187 -0.094353 0.009104
v 0.167831 -0.084378 -0.006203
v 0.171364 -0.081477 -0.005082
v 0.233099 -0.095201 0.018784
v 0.231962 -0.096495 0.024742
v 0.205413 -0.088973 0.007398
v 0.233386 -0.092977 0.018652
v 0.173817 -0.079581 0.002274
v 0.147699 -0.058313 0.014195
v 0.171683 -0.080439 0.011958
v 0.173628 -0.079431 0.004346
v 0.148211 -0.058698 0.003759
v 0.142782 -0.060096 0.022485
v 0.169242 -0.081945 0.022202
v 0.136325 -0.030397 0.019812
v 0.129255 -0.031567 0.032275
v 0.138638 -0.030125 0.005642
v 0.263115 -0.095634 0.033779
v 0.253419 -0.095213 0.027198
v 0.264403 -0.097860 0.034518
v 0.254091 -0.096477 0.030582
v 0.262084 -0.096463 0.043191
v 0.265484 -0.097305 0.035147
v 0.106117 0.009507 0.003886
v 0.116295 -0.007860 -0.006394
v 0.105689 -0.000461 0.019385
v 0.066628 -0.001909 0.025325
v 0.126832 0.014064 -0.013799
v 0.130426 -0.006236 -0.020197
v 0.095922 0.020668 -0.008468
v 0.119138 0.028362 -0.014058
v 0.061435 0.007943 -0.009359
v 0.091176 0.033194 -0.011712
v 0.110739 0.037189 -0.012784
v 0.135750 0.033026 -0.000970
v 0.142144 0.016602 -0.007990
v 0.118204 0.042874 0.011157
v 0.251439 -0.098337 0.041117
v 0.253468 -0.097173 0.036133
v 0.246861 -0.097986 0.045382
v 0.165838 -0.084425 0.026163
v 0.164225 -0.086874 0.010733
v 0.200703 -0.094404 0.020729
v 0.200321 -0.094033 0.029856
v 0.135642 -0.063379 0.028743
v 0.129472 -0.066397 0.005638
v 0.001467 -0.000009 0.002359
v 0.093414 0.043129 0.012232
v 0.100298 0.023845 0.042545
v 0.119427 0.023187 0.038490
v 0.134474 0.019773 0.027936
v 0.001467 -0.000009 0.002359
v 0.001467 -0.000009 0.002359
v 0.061787 0.038453 0.018273
v 0.075397 0.022178 0.046260
v 0.059175 0.024762 -0.012143
v 0.014445 -0.008883 -0.017351
v 0.017998 0.012176 -0.012588
v 0.141801 0.013565 0.013669
v 0.042984 0.017588 0.051122
v 0.027712 0.031590 0.013124
v 0.146321 -0.059663 -0.015193
v 0.138105 -0.063016 -0.015676
v 0.148647 -0.058600 -0.007871
v 0.133236 -0.032387 -0.021776
v 0.138076 -0.030728 -0.007799
v 0.120395 -0.034499 -0.018861
v 0.230663 -0.096969 0.031829
v 0.229560 -0.096589 0.039433
v 0.141107 -0.004648 -0.009306
v 0.117104 -0.033906 0.035270
v 0.110877 -0.035213 0.008675
v 0.140751 -0.004019 0.011793
v 0.111840 -0.002614 0.034135
v 0.123368 -0.002546 0.039581
v 0.134547 -0.002983 0.029435
vt 0.984188 0.593486
vt 0.986758 0.580282
vt 0.989546 0.583060
vt 0.988046 0.594990
vt 0.980475 0.592236
vt 0.984160 0.579802
vt 0.979076 0.611943
vt 0.973321 0.610371
vt 0.984056 0.613370
vt 0.953265 0.602419
vt 0.957334 0.605009
vt 0.939386 0.624030
vt 0.938314 0.621161
vt 0.966446 0.585760
vt 0.970202 0.587499
vt 0.990727 0.616230
vt 0.987572 0.614405
vt 0.991746 0.595882
vt 0.993152 0.596710
vt 0.988555 0.639086
vt 0.983023 0.637024
vt 0.967930 0.662421
vt 0.975191 0.635605
vt 0.981421 0.636809
vt 0.977247 0.663525
vt 0.959226 0.660371
vt 0.966659 0.633764
vt 0.960918 0.689085
vt 0.949379 0.686445
vt 0.973128 0.690972
vt 0.989376 0.572282
vt 0.993018 0.580941
vt 0.990593 0.570667
vt 0.994798 0.580145
vt 0.985546 0.574265
vt 0.986664 0.571998
vt 0.986529 0.570825
vt 0.898866 0.704433
vt 0.902858 0.691309
vt 0.914800 0.709009
vt 0.896430 0.738309
vt 0.889709 0.688473
vt 0.892598 0.681259
vt 0.885091 0.705647
vt 0.883129 0.691218
vt 0.874985 0.728409
vt 0.976782 0.750396
vt 0.972605 0.770735
vt 0.962810 0.765155
vt 0.969003 0.754065
vt 0.967964 0.740182
vt 0.975281 0.730332
vt 0.985524 0.735312
vt 0.957427 0.747265
vt 0.982260 0.577742
vt 0.980504 0.575328
vt 0.982728 0.581182
vt 0.961892 0.632349
vt 0.950445 0.628731
vt 0.964965 0.607820
vt 0.971389 0.609633
vt 0.950867 0.657157
vt 0.934456 0.651312
vt 0.977639 0.573737
vt 0.948975 0.756113
vt 0.931914 0.737457
vt 0.942880 0.731721
vt 0.953220 0.728339
vt 0.933939 0.769106
vt 0.919553 0.748978
vt 0.950406 0.783672
vt 0.543486 0.468775
vt 0.581543 0.485532
vt 0.554744 0.508045
vt 0.536676 0.471229
vt 0.552005 0.436315
vt 0.563670 0.418847
vt 0.584999 0.427843
vt 0.852207 0.750758
vt 0.872380 0.766692
vt 0.936184 0.829098
vt 0.930120 0.810497
vt 0.959941 0.795733
vt 0.962998 0.725190
vt 0.905000 0.767349
vt 0.923403 0.787978
vt 0.924999 0.816734
vt 0.887506 0.789878
vt 0.917557 0.639584
vt 0.921032 0.644355
vt 0.993914 0.666571
vt 0.987367 0.665300
vt 0.998008 0.693472
vt 0.984907 0.692275
vt 0.908202 0.667660
vt 0.900573 0.661288
vt 0.974400 0.589405
vt 0.978888 0.591292
vt 0.981313 0.714254
vt 0.994193 0.715914
vt 0.940507 0.682176
vt 0.923516 0.676301
vt 0.531577 0.485704
vt 0.522600 0.463671
vt 0.965921 0.712205
vt 0.930706 0.708227
vt 0.941332 0.709417
vt 0.952418 0.710808
vn 0.1100 0.8994 0.4231
vn 0.1583 0.9096 0.3841
vn 0.1424 0.9659 0.2164
vn 0.1386 0.9434 0.3014
vn 0.0914 0.7286 0.6788
vn 0.2494 0.6591 0.7095
vn 0.2399 0.8761 0.4183
vn 0.2356 0.7651 0.5993
vn 0.2402 0.9074 0.3449
vn -0.2653 -0.5130 -0.8164
vn -0.2748 -0.8493 -0.4507
vn -0.5253 -0.7216 -0.4509
vn -0.5546 -0.6076 -0.5686
vn 0.0068 -0.6416 -0.7670
vn -0.0851 -0.9060 -0.4146
vn 0.2176 0.9621 -0.1645
vn 0.2089 0.9700 -0.1240
vn 0.3787 0.8871 -0.2637
vn 0.8831 0.4321 0.1825
vn 0.5488 0.7663 0.3341
vn 0.5402 0.8115 0.2228
vn 0.8503 0.5257 -0.0259
vn 0.8593 0.1534 0.4879
vn 0.5642 0.6140 0.5520
vn 0.9909 -0.0412 0.1278
vn 0.8256 -0.2421 0.5097
vn 0.9861 0.0768 -0.1474
vn 0.2934 0.9555 0.0294
vn 0.1989 0.9381 -0.2835
vn 0.0733 -0.8553 -0.5130
vn -0.0330 -0.8151 -0.5784
vn 0.8981 -0.1411 0.4166
vn 0.1606 -0.9223 -0.3516
vn -0.2415 -0.6754 -0.6968
vn -0.8153 0.0533 -0.5766
vn -0.6545 -0.7167 0.2407
vn 0.1537 -0.9512 0.2677
vn -0.3244 0.0996 -0.9406
vn -0.6785 0.1482 -0.7195
vn 0.0327 -0.5795 -0.8143
vn -0.0179 0.2929 -0.9560
vn 0.2195 -0.7892 -0.5735
vn -0.1959 0.7730 -0.6034
vn -0.0766 0.8610 -0.5029
vn 0.6808 0.7248 -0.1052
vn 0.8156 0.3142 -0.4859
vn 0.3091 0.8824 0.3547
vn -0.0154 -0.9622 -0.2720
vn -0.0419 -0.9159 -0.3992
vn -0.0615 -0.9672 0.2463
vn 0.2242 -0.6810 0.6971
vn -0.4561 -0.8619 -0.2217
vn -0.2183 -0.9371 -0.2723
vn -0.1023 -0.9730 0.2069
vn 0.0683 -0.6537 0.7536
vn -0.7596 -0.6485 -0.0492
vn -0.0359 0.9451 0.3247
vn -0.0024 0.2806 0.9598
vn 0.4320 0.4302 0.7926
vn 0.8212 0.3568 0.4453
vn -0.1660 0.9738 0.1554
vn 0.0716 0.1707 0.9827
vn -0.1069 0.6351 -0.7650
vn -0.0404 -0.8155 -0.5773
vn -0.8355 0.2955 0.4358
vn -0.7448 0.4774 -0.4345
vn -0.3442 0.5789 -0.7392
vn -0.0356 -0.7545 0.6541
vn 0.0000 0.0000 0.9999
vn 0.9921 0.1104 0.0603
vn -0.3291 0.0585 0.9425
vn -0.4733 0.8652 0.1657
vn -0.7808 0.6056 0.1260
vn -0.6720 -0.2831 0.6743
vn -0.7705 -0.4135 -0.4851
vn -0.7305 -0.4673 -0.4980
vn 0.7084 0.5638 -0.4247
vn -0.8818 -0.0949 -0.4620
vn 0.8759 0.2068 -0.4359
vn -0.8388 -0.1460 -0.5245
vn -0.1111 -0.9453 -0.3066
vn -0.1231 -0.9855 0.1167
vn 0.8679 0.0345 -0.4955
vn -0.5099 -0.4967 0.7023
vn -0.9598 -0.2634 -0.0973
vn 0.9897 -0.1338 -0.0509
vn -0.4674 -0.5204 0.7146
vn 0.5256 -0.2665 0.8079
vn 0.9203 -0.1837 0.3455
usemtl cockroach_texture.003
s 1
f 6/1/1 7/2/2 8/3/3 9/4/4
f 6/1/1 10/5/5 11/6/6 7/2/2
f 6/1/1 12/7/7 13/8/8 10/5/5
f 6/1/1 9/4/4 14/9/9 12/7/7
f 15/10/10 16/11/11 17/12/12 18/13/13
f 15/10/10 19/14/14 20/15/15 16/11/11
f 15/16/10 21/17/16 22/18/17 19/19/14
f 15/16/10 18/20/13 23/21/18 21/17/16
f 24/22/19 25/23/20 26/24/21 27/25/22
f 24/22/19 28/26/23 29/27/24 25/23/20
f 24/22/19 30/28/25 31/29/26 28/26/23
f 24/22/19 27/25/22 32/30/27 30/28/25
f 33/31/28 34/32/29 8/3/3 7/2/2
f 33/31/28 35/33/30 36/34/31 34/32/29
f 33/31/28 37/35/32 38/36/33 35/37/30
f 33/31/28 7/2/2 11/6/6 37/35/32
f 39/38/34 40/39/35 41/40/36 42/41/37
f 39/38/34 43/42/38 44/43/39 40/39/35
f 39/38/34 45/44/40 46/45/41 43/42/38
f 39/38/34 42/41/37 47/46/42 45/44/40
f 46/47/41 45/48/40 48/49/43 49/50/44
f 46/47/41 50/51/45 51/52/46 43/53/38
f 46/47/41 49/50/44 52/54/47 50/51/45
f 37/35/32 53/55/48 54/56/49 38/36/33
f 37/35/32 11/6/6 55/57/50 53/55/48
f 56/58/51 57/59/52 58/60/53 59/61/54
f 56/58/51 60/62/55 61/63/56 57/59/52
f 56/58/51 29/27/24 28/26/23 60/62/55
f 56/58/51 59/61/54 13/8/8 29/27/24
f 36/64/31 54/56/49 20/15/15 19/14/14
f 36/64/31 35/37/30 38/36/33 54/56/49
f 36/34/31 19/19/14 22/18/17 34/32/29
f 52/54/47 63/65/57 64/66/58 65/67/59
f 52/54/47 49/50/44 48/49/43 63/65/57
f 52/54/47 65/67/59 66/68/60 50/51/45
f 63/65/57 69/69/61 70/70/62 64/66/58
f 63/65/57 48/49/43 71/71/63 69/69/61
f 72/72/64 2/73/65 1/74/66 73/75/67
f 72/76/64 68/77/68 67/78/69 2/73/65
f 72/79/64 47/46/42 42/41/37 68/80/68
f 72/81/64 73/82/67 71/71/63 47/83/42
f 48/49/43 45/48/40 47/83/42 71/71/63
f 50/51/45 66/68/60 74/84/70 51/52/46
f 75/85/71 76/86/72 3/87/73 5/88/74
f 75/85/71 70/70/62 69/69/61 76/86/72
f 75/85/71 42/41/37 41/40/36 70/70/62
f 75/85/71 5/88/74 68/80/68 42/41/37
f 77/89/75 18/13/13 17/12/12 78/90/76
f 77/91/75 79/92/77 23/21/18 18/20/13
f 77/91/75 80/93/78 81/94/79 79/92/77
f 77/89/75 78/90/76 82/95/80 80/96/78
f 58/60/53 83/97/81 84/98/82 59/61/54
f 58/60/53 16/11/11 20/15/15 83/97/81
f 58/60/53 57/59/52 17/12/12 16/11/11
f 17/12/12 57/59/52 61/63/56 78/90/76
f 12/7/7 25/23/20 29/27/24 13/8/8
f 12/7/7 14/9/9 26/24/21 25/23/20
f 26/24/21 23/21/18 79/92/77 27/25/22
f 26/24/21 14/9/9 21/17/16 23/21/18
f 43/53/38 51/52/46 85/99/83 44/100/39
f 61/63/56 60/62/55 86/101/84 87/102/85
f 61/63/56 87/102/85 82/95/80 78/90/76
f 71/71/63 73/82/67 76/86/72 69/69/61
f 14/9/9 9/4/4 22/18/17 21/17/16
f 13/8/8 59/61/54 84/98/82 10/5/5
f 1/74/66 3/103/73 76/104/72 73/75/67
f 85/99/83 81/94/79 80/93/78 44/100/39
f 85/99/83 88/105/86 32/30/27 81/94/79
f 85/99/83 51/52/46 74/84/70 88/105/86
f 44/43/39 80/96/78 82/95/80 40/39/35
f 27/25/22 79/92/77 81/94/79 32/30/27
f 64/66/58 70/70/62 41/40/36 89/106/87
f 64/66/58 89/106/87 90/107/88 65/67/59
f 28/26/23 31/29/26 86/101/84 60/62/55
f 84/98/82 55/57/50 11/6/6 10/5/5
f 84/98/82 83/97/81 53/55/48 55/57/50
f 31/29/26 90/107/88 89/106/87 86/101/84
f 31/29/26 30/28/25 91/108/89 90/107/88
f 20/15/15 54/56/49 53/55/48 83/97/81
f 87/102/85 41/40/36 40/39/35 82/95/80
f 87/102/85 86/101/84 89/106/87 41/40/36
f 34/32/29 22/18/17 9/4/4 8/3/3
f 32/30/27 88/105/86 91/108/89 30/28/25
f 66/68/60 65/67/59 90/107/88 91/108/89
f 66/68/60 91/108/89 88/105/86 74/84/70
