# Blender v2.80 (sub 75) OBJ File: ''
# www.blender.org
mtllib left_leg.mtl
o chef_chefmesh
v 0.001445 -0.001920 -0.005984
v 0.001445 -0.001920 -0.005984
v -0.005566 -0.074832 0.079005
v 0.001445 -0.001920 -0.005984
v 0.001445 -0.001920 -0.005984
v -0.031387 -0.100408 0.050041
v 0.001445 -0.001920 -0.005984
v -0.044198 -0.090310 0.015483
v 0.001445 -0.001920 -0.005984
v -0.047343 -0.088412 -0.011419
v 0.001445 -0.001920 -0.005984
v -0.046214 -0.070831 -0.039090
v 0.001445 -0.001920 -0.005984
v -0.037485 -0.081397 -0.055653
v 0.001445 -0.001920 -0.005984
v -0.021234 -0.080437 -0.065114
v 0.001445 -0.001920 -0.005984
v 0.005068 -0.065763 -0.075219
v 0.001445 -0.001920 -0.005984
v 0.001445 -0.001920 -0.005984
v 0.011706 -0.002836 -0.120782
v 0.006283 -0.029735 -0.100618
v 0.001445 -0.001920 -0.005984
v 0.001445 -0.001920 -0.005984
v 0.001445 -0.001920 -0.005984
v 0.001445 -0.001920 -0.005984
v 0.071990 0.027392 -0.088330
v 0.066793 -0.011422 -0.086919
v 0.064615 -0.042298 -0.077132
v 0.096360 -0.016214 -0.040520
v 0.096744 -0.043329 -0.029480
v 0.001445 -0.001920 -0.005984
v 0.001445 -0.001920 -0.005984
v 0.095809 0.014730 -0.038901
v 0.001445 -0.001920 -0.005984
v 0.086029 0.020010 0.017909
v 0.048758 0.010569 0.071262
v 0.001445 -0.001920 -0.005984
v 0.001445 -0.001920 -0.005984
v 0.037476 0.009753 0.085366
v 0.029456 -0.006546 0.087155
v 0.001445 -0.001920 -0.005984
v 0.001445 -0.001920 -0.005984
v 0.017925 -0.031996 0.088532
v 0.010404 -0.160553 0.080865
v -0.018994 -0.168681 0.057179
v -0.036376 -0.168648 0.026014
v -0.042746 -0.164779 -0.004789
v -0.042901 -0.156484 -0.034397
v -0.003347 -0.154814 -0.059795
v -0.027970 -0.154821 -0.054267
v 0.026738 -0.147411 -0.065712
v 0.066432 -0.079250 -0.069329
v 0.064838 -0.145295 -0.048045
v 0.090086 -0.146046 -0.012074
v 0.096189 -0.067427 -0.024597
v 0.097692 0.004746 -0.005298
v 0.043122 -0.158716 0.089879
v 0.038835 -0.089179 0.087728
v 0.102972 -0.152891 0.028567
v 0.104061 -0.075996 0.020516
v 0.098217 -0.087204 0.054012
v 0.098613 -0.155842 0.062837
v 0.099561 -0.020761 0.001698
v 0.102524 -0.052667 0.015520
v 0.046227 -0.015665 0.072162
v 0.043695 -0.046453 0.080733
v 0.095366 -0.046960 0.045778
v 0.091525 -0.014925 0.032883
v 0.014203 -0.250600 0.088403
v -0.009776 -0.255164 0.061443
v -0.019640 -0.255185 0.029892
v 0.046023 -0.246641 0.091446
v 0.088773 -0.242053 0.059362
v 0.096655 -0.239074 0.030714
v 0.094349 -0.231784 -0.007297
v 0.068309 -0.221162 -0.036144
v 0.037101 -0.229862 -0.048759
v 0.012845 -0.236063 -0.041472
v -0.004542 -0.239921 -0.033021
v -0.022619 -0.252227 0.002318
v -0.016926 -0.244711 -0.020474
v 0.045383 -0.320688 -0.081465
v 0.007953 -0.332173 -0.067279
v 0.092037 -0.317942 -0.058106
v -0.011862 -0.336363 -0.051272
v 0.112337 -0.323442 -0.012388
v 0.105331 -0.326314 0.029402
v 0.090867 -0.327414 0.057319
v 0.026859 -0.334822 0.074826
v 0.051163 -0.330359 0.077279
v 0.006801 -0.339024 0.055878
v -0.009806 -0.343259 0.032312
v -0.021639 -0.343877 0.005351
v -0.024999 -0.340744 -0.025548
v 0.108579 -0.418801 -0.007817
v 0.108109 -0.409545 0.031602
v 0.085951 -0.420743 -0.044073
v 0.047361 -0.427291 -0.063145
v 0.012546 -0.434388 -0.049368
v 0.020505 -0.417903 0.052841
v 0.040426 -0.412334 0.061733
v 0.001995 -0.424740 0.036083
v -0.005275 -0.433939 0.010930
v 0.001877 -0.434644 -0.035670
v -0.003818 -0.434371 -0.014500
v 0.057459 -0.407301 0.065378
v 0.090577 -0.405670 0.054226
v 0.049596 -0.482262 0.070639
v 0.065375 -0.478492 0.072867
v 0.117170 -0.483435 0.044689
v 0.109847 -0.507772 -0.000658
v 0.093148 -0.474339 0.064314
v 0.087347 -0.511603 -0.023324
v 0.049768 -0.515543 -0.036479
v 0.025256 -0.517756 -0.021847
v 0.023130 -0.517668 -0.010565
v 0.021448 -0.517689 0.005303
v 0.017960 -0.517754 0.020282
v 0.028606 -0.487455 0.063111
v 0.006014 -0.497466 0.045303
v 0.091175 -0.544375 -0.024090
v 0.051437 -0.545557 -0.040820
v 0.116783 -0.542631 0.013713
v 0.120808 -0.537281 0.068326
v 0.103285 -0.519829 0.097970
v 0.051519 -0.520263 0.100584
v 0.073716 -0.517571 0.108816
v 0.028810 -0.531792 0.086151
v 0.013511 -0.540479 0.053441
v 0.003771 -0.545489 0.023263
v 0.002591 -0.545865 -0.000383
v 0.014400 -0.544232 -0.030933
v 0.005845 -0.544026 -0.019366
v 0.050505 -0.596624 0.000327
v 0.018203 -0.580090 -0.027341
v 0.051261 -0.581947 -0.038881
v 0.080627 -0.589788 -0.014969
v 0.029588 -0.595652 0.014458
v 0.013059 -0.581354 -0.017327
v 0.079677 -0.594080 0.041470
v 0.046956 -0.594949 0.058975
v 0.108016 -0.589519 0.028346
v 0.118354 -0.583681 0.092231
v 0.084136 -0.593017 0.104480
v 0.057441 -0.595523 0.113746
v 0.051738 -0.566241 -0.042080
v 0.092010 -0.568349 -0.023360
v 0.013723 -0.565512 -0.032178
v 0.006725 -0.565844 -0.020438
v 0.010682 -0.583656 0.024735
v 0.005400 -0.565937 0.025401
v 0.001256 -0.565528 -0.001858
v 0.007090 -0.581268 -0.002414
v 0.014583 -0.565370 0.060536
v 0.019879 -0.584707 0.065648
v 0.020106 -0.581525 0.124255
v 0.019450 -0.553608 0.109962
v 0.044546 -0.531226 0.134051
v 0.040836 -0.582929 0.168356
v 0.068556 -0.551000 0.185669
v 0.075929 -0.523697 0.137667
v 0.122386 -0.558952 0.078694
v 0.118690 -0.535461 0.128140
v 0.130767 -0.568246 0.145158
v 0.117775 -0.566962 0.020289
v 0.093777 -0.594529 0.145805
v 0.078666 -0.594338 0.166956
v 0.102261 -0.526728 0.135756
v 0.115566 -0.576670 0.174656
v 0.077918 -0.476763 0.069998
v 0.092956 -0.519581 0.111285
v 0.073558 -0.405277 0.063113
v 0.072834 -0.328243 0.071912
v 0.072927 -0.244048 0.079644
v 0.073841 -0.157147 0.084605
v 0.073878 -0.089926 0.079958
v 0.069815 -0.016639 0.057570
v 0.074280 -0.048147 0.071930
v 0.001445 -0.001920 -0.005984
v 0.066390 0.013152 0.050360
vt 0.438655 0.058555
vt 0.428109 0.091881
vt 0.403957 0.090184
vt 0.403660 0.059560
vt 0.403416 0.034522
vt 0.427135 0.036345
vt 0.417437 0.019176
vt 0.403227 0.015079
vt 0.416398 0.004572
vt 0.403103 0.002294
vt 0.411471 0.701638
vt 0.411221 0.685044
vt 0.420280 0.690719
vt 0.423828 0.707776
vt 0.430829 0.686338
vt 0.411039 0.673020
vt 0.410928 0.665661
vt 0.439860 0.681278
vt 0.410682 0.649362
vt 0.452105 0.669314
vt 0.410347 0.627167
vt 0.448908 0.630736
vt 0.448821 0.647434
vt 0.410482 0.636121
vt 0.448320 0.588759
vt 0.486354 0.587443
vt 0.486893 0.612161
vt 0.448906 0.610921
vt 0.484446 0.633872
vt 0.485289 0.651065
vt 0.588251 0.096406
vt 0.557537 0.091411
vt 0.553447 0.076928
vt 0.586166 0.079551
vt 0.555096 0.107236
vt 0.584956 0.116773
vt 0.576862 0.139107
vt 0.544899 0.124873
vt 0.541232 0.141509
vt 0.515923 0.126819
vt 0.521687 0.109083
vt 0.481326 0.103822
vt 0.480071 0.119272
vt 0.466684 0.114747
vt 0.470142 0.103838
vt 0.463976 0.095179
vt 0.457282 0.108937
vt 0.445794 0.100851
vt 0.454921 0.081661
vt 0.156257 0.059522
vt 0.164549 0.014016
vt 0.186315 0.028908
vt 0.177780 0.064702
vt 0.207409 0.025832
vt 0.197848 0.066408
vt 0.215663 0.066668
vt 0.222702 0.026799
vt 0.569372 0.650704
vt 0.574736 0.606303
vt 0.590868 0.602526
vt 0.585684 0.643266
vt 0.548368 0.641878
vt 0.547516 0.601259
vt 0.561112 0.605136
vt 0.559216 0.643615
vt 0.530976 0.645730
vt 0.529789 0.600686
vt 0.498399 0.629494
vt 0.506872 0.594201
vt 0.058831 0.055749
vt 0.033828 0.057055
vt 0.023012 0.022410
vt 0.053293 0.013918
vt 0.536533 0.100804
vt 0.136837 0.058542
vt 0.138624 0.021910
vt 0.082478 0.057833
vt 0.078765 0.017390
vt 0.097652 0.022397
vt 0.101189 0.058059
vt 0.533921 0.087134
vt 0.528303 0.069844
vt 0.477504 0.089761
vt 0.471354 0.073199
vt 0.510197 0.071617
vt 0.514887 0.089268
vt 0.151486 0.106145
vt 0.170833 0.110087
vt 0.188844 0.112633
vt 0.133933 0.104199
vt 0.103143 0.104164
vt 0.086414 0.104201
vt 0.064579 0.101839
vt 0.042234 0.096003
vt 0.516399 0.556396
vt 0.537199 0.555995
vt 0.553370 0.556968
vt 0.565572 0.557719
vt 0.204502 0.113499
vt 0.576633 0.557653
vt 0.590675 0.556192
vt 0.539666 0.504441
vt 0.561771 0.504447
vt 0.511233 0.500935
vt 0.575374 0.505936
vt 0.038005 0.147878
vt 0.066207 0.151041
vt 0.089307 0.151652
vt 0.106597 0.150686
vt 0.146543 0.151747
vt 0.132339 0.150115
vt 0.162080 0.154964
vt 0.178168 0.158294
vt 0.194666 0.159997
vt 0.607804 0.509113
vt 0.590784 0.507536
vt 0.067319 0.198637
vt 0.091232 0.196603
vt 0.042465 0.196995
vt 0.554569 0.451481
vt 0.529794 0.445748
vt 0.576067 0.453685
vt 0.155464 0.197791
vt 0.141850 0.196131
vt 0.170613 0.199688
vt 0.185984 0.202859
vt 0.585627 0.455543
vt 0.597784 0.457255
vt 0.612011 0.458570
vt 0.130787 0.194295
vt 0.108628 0.194612
vt 0.141059 0.236756
vt 0.129864 0.236499
vt 0.089409 0.237062
vt 0.057961 0.240701
vt 0.110014 0.234908
vt 0.039694 0.237783
vt 0.546950 0.400598
vt 0.570640 0.405632
vt 0.588938 0.408786
vt 0.596075 0.410112
vt 0.605624 0.411552
vt 0.614495 0.412567
vt 0.156241 0.236277
vt 0.193601 0.240549
vt 0.175244 0.235264
vt 0.547934 0.384732
vt 0.571687 0.389068
vt 0.057849 0.258957
vt 0.033573 0.251916
vt 0.085299 0.268675
vt 0.107772 0.268661
vt 0.143839 0.264184
vt 0.129020 0.267732
vt 0.161947 0.263466
vt 0.182202 0.256935
vt 0.200679 0.252587
vt 0.608643 0.393991
vt 0.621113 0.397061
vt 0.591800 0.391935
vt 0.598815 0.392903
vt 0.062741 0.376999
vt 0.047632 0.357655
vt 0.067412 0.355515
vt 0.081075 0.372347
vt 0.049810 0.381909
vt 0.043614 0.362431
vt 0.073702 0.402409
vt 0.053407 0.407456
vt 0.090882 0.399145
vt 0.089319 0.435072
vt 0.068342 0.436139
vt 0.052304 0.437488
vt 0.573220 0.377878
vt 0.549228 0.372223
vt 0.555677 0.360198
vt 0.574966 0.369701
vt 0.593084 0.381197
vt 0.593933 0.373040
vt 0.600628 0.373154
vt 0.599869 0.381851
vt 0.625455 0.376208
vt 0.624542 0.386168
vt 0.609635 0.383782
vt 0.609997 0.374792
vt 0.187221 0.269406
vt 0.204714 0.261136
vt 0.209759 0.269121
vt 0.191589 0.279376
vt 0.171484 0.297526
vt 0.165685 0.281370
vt 0.146427 0.283870
vt 0.155639 0.317885
vt 0.135632 0.308101
vt 0.129303 0.284044
vt 0.079184 0.295772
vt 0.082640 0.281115
vt 0.106936 0.290296
vt 0.101326 0.311334
vt 0.054742 0.271042
vt 0.050393 0.283696
vt 0.023621 0.275402
vt 0.028565 0.262821
vt 0.068230 0.458638
vt 0.057664 0.466490
vt 0.115961 0.287818
vt 0.114411 0.324644
vt 0.120998 0.236063
vt 0.117028 0.272020
vt 0.120554 0.193919
vt 0.119563 0.149783
vt 0.117552 0.103857
vt 0.119284 0.058066
vt 0.117962 0.022818
vt 0.495006 0.088980
vt 0.490689 0.070843
vt 0.496195 0.122045
vt 0.498470 0.105857
vt 0.075690 0.480119
vt 0.090681 0.467668
vt 0.036111 0.466418
vt 0.029522 0.439758
vt 0.036767 0.407898
vt 0.036676 0.384885
vt 0.038334 0.369665
vt 0.466589 0.050602
vt 0.487654 0.049091
vt 0.508347 0.050319
vt 0.527115 0.057492
vt 0.552626 0.064255
vt 0.583940 0.060075
vt 0.489483 0.670175
vt 0.410098 0.610685
vn -0.6542 0.2071 0.7274
vn -0.5407 0.2573 0.8003
vn 0.0000 0.0000 1.0000
vn -0.5058 0.2830 0.8145
vn -0.8124 0.4960 0.3067
vn -0.8002 0.2172 0.5591
vn -0.8799 0.3396 0.3323
vn -0.8339 0.4950 0.2441
vn -0.9513 0.2804 0.1278
vn -0.8565 0.4708 0.2115
vn -0.7179 0.6343 -0.2868
vn -0.7863 0.5459 -0.2892
vn -0.5583 0.2954 -0.7753
vn -0.4390 0.6208 -0.6492
vn -0.4901 0.6103 -0.6224
vn -0.3413 0.2469 -0.9069
vn -0.8735 0.3343 -0.3539
vn -0.3557 0.0092 -0.9345
vn -0.7306 0.0978 0.6740
vn -0.3896 0.3152 -0.8654
vn -0.6205 -0.2748 -0.7345
vn -0.9954 0.0652 -0.0701
vn 0.0006 0.9542 0.2991
vn -0.0525 0.9520 0.3014
vn 0.3151 0.9051 -0.2855
vn -0.0660 0.7483 0.6598
vn 0.5752 0.0456 -0.8167
vn 0.5019 -0.3451 -0.7931
vn 0.9174 -0.0902 -0.3875
vn 0.9245 -0.0831 -0.3721
vn 0.6788 0.6963 -0.2333
vn -0.0557 0.7627 0.6432
vn 0.0000 0.0000 0.9999
vn -0.1581 0.5982 0.7856
vn 0.4157 0.8797 0.2311
vn 0.3994 0.7687 0.4996
vn -0.1932 0.9809 -0.0205
vn -0.6202 0.7704 0.1462
vn 0.0164 0.6264 0.7793
vn -0.2738 0.3240 0.9056
vn -0.8588 0.4285 0.2796
vn -0.8666 0.4101 0.2816
vn -0.4698 0.2386 0.8499
vn -0.4604 -0.0126 0.8876
vn -0.7992 -0.0678 0.5973
vn -0.9511 -0.1202 0.2846
vn -0.9874 -0.1579 0.0109
vn -0.9248 -0.1823 -0.3339
vn -0.2407 -0.2011 -0.9495
vn -0.5699 -0.2133 -0.7935
vn 0.0990 -0.1736 -0.9798
vn 0.5209 -0.2186 -0.8252
vn 0.5950 -0.1385 -0.7917
vn 0.9079 -0.0770 -0.4120
vn 0.9067 -0.1078 -0.4077
vn 0.8142 0.5798 0.0301
vn -0.0007 0.0187 0.9998
vn -0.0134 0.0327 0.9994
vn 0.9980 -0.0425 -0.0471
vn 0.9973 -0.0187 -0.0716
vn 0.8942 0.0715 0.4420
vn 0.8895 -0.0261 0.4562
vn 0.9928 0.1038 0.0591
vn 0.9958 0.0804 0.0449
vn 0.5262 0.1433 0.8382
vn 0.1983 0.1029 0.9747
vn 0.8595 0.2153 0.4635
vn 0.8602 0.2709 0.4321
vn -0.4517 -0.0758 0.8889
vn -0.8042 -0.1134 0.5835
vn -0.9401 -0.1250 0.3171
vn 0.0720 -0.0550 0.9959
vn 0.8719 -0.0390 0.4882
vn 0.9946 0.0304 0.0997
vn 0.9412 0.1154 -0.3174
vn 0.6402 0.1147 -0.7596
vn 0.1065 0.1143 -0.9877
vn -0.3694 0.0337 -0.9287
vn -0.6388 -0.0580 -0.7672
vn -0.9926 -0.1083 0.0542
vn -0.9297 -0.1043 -0.3533
vn 0.0934 0.0642 -0.9936
vn -0.4531 0.0078 -0.8914
vn 0.6743 0.0828 -0.7338
vn -0.7760 -0.0159 -0.6306
vn 0.9688 0.0711 -0.2374
vn 0.9705 0.0546 0.2349
vn 0.8057 -0.0010 0.5923
vn -0.3990 -0.1910 0.8968
vn 0.0917 -0.1476 0.9848
vn -0.7375 -0.1630 0.6554
vn -0.8943 -0.1122 0.4331
vn -0.9844 -0.0930 0.1493
vn -0.9696 -0.0716 -0.2338
vn 0.9547 -0.0336 -0.2957
vn 0.9703 0.0498 0.2368
vn 0.6489 -0.1414 -0.7476
vn 0.0946 -0.2147 -0.9721
vn -0.4876 -0.2402 -0.8394
vn -0.6044 -0.0494 0.7951
vn -0.3404 -0.0645 0.9381
vn -0.8720 -0.0967 0.4798
vn -0.9774 -0.1989 0.0721
vn -0.8542 -0.2473 -0.4573
vn -0.9552 -0.2482 -0.1612
vn 0.0113 -0.0532 0.9985
vn 0.6989 0.0596 0.7127
vn -0.3805 0.2894 0.8783
vn -0.0993 0.3720 0.9229
vn 0.9783 0.1482 0.1445
vn 0.9294 0.0014 -0.3690
vn 0.6711 0.2960 0.6797
vn 0.6084 -0.1056 -0.7865
vn 0.0564 -0.1717 -0.9835
vn -0.5740 -0.1452 -0.8059
vn -0.9572 -0.0986 -0.2723
vn -0.9868 -0.0916 -0.1339
vn -0.9962 -0.0556 -0.0671
vn -0.6243 0.1581 0.7650
vn -0.9387 -0.0218 0.3440
vn 0.6323 0.0214 -0.7745
vn 0.0855 0.1197 -0.9891
vn 0.9580 0.0242 -0.2857
vn 0.9719 0.2230 0.0752
vn 0.7607 0.5327 0.3709
vn -0.4943 0.6965 0.5201
vn -0.1311 0.8379 0.5298
vn -0.8056 0.4089 0.4287
vn -0.9509 0.1372 0.2774
vn -0.9886 0.1370 0.0626
vn -0.9490 0.3099 -0.0584
vn -0.4865 0.2232 -0.8447
vn -0.8939 0.3470 -0.2836
vn -0.0019 -0.9883 -0.1528
vn -0.2764 -0.7820 -0.5586
vn 0.0443 -0.7454 -0.6651
vn 0.3535 -0.8469 -0.3972
vn -0.2139 -0.9768 -0.0120
vn -0.4848 -0.8274 -0.2835
vn 0.1366 -0.9906 -0.0039
vn -0.1463 -0.9884 0.0417
vn 0.5850 -0.7995 -0.1366
vn 0.7309 -0.6816 -0.0344
vn 0.2153 -0.9765 0.0108
vn -0.1740 -0.9834 0.0520
vn 0.1343 -0.1376 -0.9813
vn 0.6859 -0.2563 -0.6811
vn -0.4427 -0.0953 -0.8916
vn -0.9116 -0.1491 -0.3831
vn -0.6914 -0.7111 0.1275
vn -0.9701 -0.1346 0.2022
vn -0.9876 -0.1512 -0.0422
vn -0.7459 -0.6629 -0.0652
vn -0.9861 -0.0027 0.1663
vn -0.6813 -0.7250 0.1008
vn -0.8103 -0.5042 0.2987
vn -0.9164 0.2885 0.2774
vn -0.6591 0.6172 0.4297
vn -0.7045 -0.3631 0.6098
vn -0.1175 0.5317 0.8387
vn -0.0559 0.8376 0.5434
vn 0.9973 0.0170 -0.0715
vn 0.8866 0.4278 0.1757
vn 0.9369 -0.2723 0.2192
vn 0.9340 -0.2318 -0.2719
vn 0.3378 -0.9399 0.0496
vn -0.0198 -0.9450 0.3265
vn 0.4254 0.7473 0.5104
vn 0.6256 0.0296 0.7796
vn 0.2734 0.3941 0.8775
vn 0.2558 0.8583 0.4449
vn 0.3583 -0.0052 0.9336
vn 0.4800 -0.0823 0.8734
vn 0.5232 -0.0589 0.8502
vn 0.4887 0.0056 0.8724
vn 0.4795 0.1006 0.8717
vn 0.6451 0.2977 0.7037
vn 0.5415 0.2342 0.8074
vn -0.2340 0.9718 0.0098
vn 0.3380 0.8336 0.4368
vn 0.0000 0.0000 0.9998
usemtl None.006
s 1
f 3/1/1 4/2/2 1/3/3 2/4/4
f 2/4/4 5/5/5 6/6/6 3/1/1
f 8/7/7 6/6/6 5/5/5 7/8/8
f 10/9/9 8/7/7 7/8/8 9/10/10
f 9/11/10 11/12/11 12/13/12 10/14/9
f 14/15/13 13/16/14 15/17/15 16/18/16
f 17/19/17 18/20/18 16/18/16 15/17/15
f 19/21/19 21/22/20 22/23/21 20/24/22
f 24/25/23 26/26/24 27/27/25 25/28/26
f 21/22/20 28/29/27 29/30/28 22/23/21
f 28/31/27 30/32/29 31/33/30 29/34/28
f 34/35/31 27/36/25 26/37/24 33/38/32
f 32/39/33 35/40/34 36/41/35 33/38/32
f 37/42/36 38/43/37 39/44/38 40/45/39
f 41/46/40 42/47/41 43/48/42 44/49/43
f 45/50/44 3/51/1 6/52/6 46/53/45
f 46/53/45 6/52/6 8/54/7 47/55/46
f 48/56/47 47/55/46 8/54/7 10/57/9
f 12/58/12 49/59/48 48/60/47 10/61/9
f 16/62/16 50/63/49 51/64/50 14/65/13
f 18/66/18 52/67/51 50/63/49 16/62/16
f 52/67/51 18/66/18 53/68/52 54/69/53
f 55/70/54 54/71/53 53/72/52 56/73/55
f 36/41/35 57/74/56 34/35/31 33/38/32
f 45/50/44 58/75/57 59/76/58 3/51/1
f 60/77/59 61/78/60 62/79/61 63/80/62
f 60/77/59 55/70/54 56/73/55 61/78/60
f 30/32/29 64/81/63 65/82/64 31/33/30
f 66/83/65 41/46/40 44/49/43 67/84/66
f 68/85/67 65/82/64 64/81/63 69/86/68
f 70/87/69 45/50/44 46/53/45 71/88/70
f 47/55/46 72/89/71 71/88/70 46/53/45
f 45/50/44 70/87/69 73/90/72 58/75/57
f 63/80/62 74/91/73 75/92/74 60/77/59
f 60/77/59 75/92/74 76/93/75 55/70/54
f 77/94/76 54/71/53 55/70/54 76/93/75
f 54/69/53 77/95/76 78/96/77 52/67/51
f 52/67/51 78/96/77 79/97/78 50/63/49
f 50/63/49 79/97/78 80/98/79 51/64/50
f 72/89/71 47/55/46 48/56/47 81/99/80
f 49/59/48 82/100/81 81/101/80 48/60/47
f 78/96/77 83/102/82 84/103/83 79/97/78
f 77/95/76 85/104/84 83/102/82 78/96/77
f 79/97/78 84/103/83 86/105/85 80/98/79
f 85/106/84 77/94/76 76/93/75 87/107/86
f 87/107/86 76/93/75 75/92/74 88/108/87
f 88/108/87 75/92/74 74/91/73 89/109/88
f 70/87/69 90/110/89 91/111/90 73/90/72
f 90/110/89 70/87/69 71/88/70 92/112/91
f 72/89/71 93/113/92 92/112/91 71/88/70
f 81/99/80 94/114/93 93/113/92 72/89/71
f 94/115/93 81/101/80 82/100/81 95/116/94
f 96/117/95 87/107/86 88/108/87 97/118/96
f 87/107/86 96/117/95 98/119/97 85/106/84
f 99/120/98 83/102/82 85/104/84 98/121/97
f 100/122/99 84/103/83 83/102/82 99/120/98
f 92/112/91 101/123/100 102/124/101 90/110/89
f 101/123/100 92/112/91 93/113/92 103/125/102
f 94/114/93 104/126/103 103/125/102 93/113/92
f 84/103/83 100/122/99 105/127/104 86/105/85
f 95/116/94 106/128/105 104/129/103 94/115/93
f 90/110/89 102/124/101 107/130/106 91/111/90
f 97/118/96 88/108/87 89/109/88 108/131/107
f 102/124/101 109/132/108 110/133/109 107/130/106
f 111/134/110 112/135/111 96/117/95 97/118/96
f 108/131/107 113/136/112 111/134/110 97/118/96
f 96/117/95 112/135/111 114/137/113 98/119/97
f 98/121/97 114/138/113 115/139/114 99/120/98
f 99/120/98 115/139/114 116/140/115 100/122/99
f 100/122/99 116/140/115 117/141/116 105/127/104
f 106/128/105 118/142/117 119/143/118 104/129/103
f 109/132/108 102/124/101 101/123/100 120/144/119
f 104/126/103 119/145/118 121/146/120 103/125/102
f 120/144/119 101/123/100 103/125/102 121/146/120
f 114/138/113 122/147/121 123/148/122 115/139/114
f 124/149/123 122/150/121 114/137/113 112/135/111
f 111/134/110 125/151/124 124/149/123 112/135/111
f 126/152/125 125/151/124 111/134/110 113/136/112
f 109/132/108 127/153/126 128/154/127 110/133/109
f 120/144/119 129/155/128 127/153/126 109/132/108
f 130/156/129 129/155/128 120/144/119 121/146/120
f 119/145/118 131/157/130 130/156/129 121/146/120
f 132/158/131 131/159/130 119/143/118 118/142/117
f 133/160/132 134/161/133 117/141/116 116/140/115
f 115/139/114 123/148/122 133/160/132 116/140/115
f 135/162/134 136/163/135 137/164/136 138/165/137
f 135/162/134 139/166/138 140/167/139 136/163/135
f 141/168/140 142/169/141 139/166/138 135/162/134
f 141/168/140 135/162/134 138/165/137 143/170/142
f 143/170/142 144/171/143 145/172/144 141/168/140
f 146/173/145 142/169/141 141/168/140 145/172/144
f 147/174/146 148/175/147 138/176/137 137/177/136
f 149/178/148 147/174/146 137/177/136 136/179/135
f 140/180/139 150/181/149 149/178/148 136/179/135
f 151/182/150 152/183/151 153/184/152 154/185/153
f 155/186/154 152/187/151 151/188/150 156/189/155
f 156/189/155 157/190/156 158/191/157 155/186/154
f 159/192/158 158/191/157 157/190/156 160/193/159
f 161/194/160 162/195/161 159/192/158 160/193/159
f 144/196/143 163/197/162 164/198/163 165/199/164
f 166/200/165 163/197/162 144/196/143 143/201/142
f 138/202/137 148/203/147 166/200/165 143/201/142
f 145/172/144 167/204/166 168/205/167 146/173/145
f 164/198/163 169/206/168 170/207/169 165/199/164
f 171/208/170 172/209/171 126/152/125 113/136/112
f 173/210/172 171/208/170 113/136/112 108/131/107
f 174/211/173 173/210/172 108/131/107 89/109/88
f 175/212/174 174/211/173 89/109/88 74/91/73
f 176/213/175 175/212/174 74/91/73 63/80/62
f 177/214/176 176/213/175 63/80/62 62/79/61
f 69/86/68 178/215/177 179/216/178 68/85/67
f 36/41/35 35/40/34 180/217/179 181/218/180
f 170/219/169 168/205/167 167/204/166 165/220/164
f 167/204/166 145/172/144 144/171/143 165/220/164
f 166/200/165 148/203/147 122/150/121 124/149/123
f 124/149/123 125/151/124 163/197/162 166/200/165
f 164/198/163 163/197/162 125/151/124 126/152/125
f 126/152/125 172/209/171 169/206/168 164/198/163
f 159/192/158 162/195/161 128/154/127 127/153/126
f 127/153/126 129/155/128 158/191/157 159/192/158
f 155/186/154 158/191/157 129/155/128 130/156/129
f 130/156/129 131/157/130 152/187/151 155/186/154
f 153/184/152 152/183/151 131/159/130 132/158/131
f 149/178/148 150/181/149 134/161/133 133/160/132
f 133/160/132 123/148/122 147/174/146 149/178/148
f 123/148/122 122/147/121 148/175/147 147/174/146
f 181/218/180 180/217/179 38/43/37 37/42/36
f 178/215/177 66/83/65 67/84/66 179/216/178
f 59/76/58 58/75/57 176/213/175 177/214/176
f 58/75/57 73/90/72 175/212/174 176/213/175
f 73/90/72 91/111/90 174/211/173 175/212/174
f 91/111/90 107/130/106 173/210/172 174/211/173
f 107/130/106 110/133/109 171/208/170 173/210/172
f 110/133/109 128/154/127 172/209/171 171/208/170
f 169/206/168 172/209/171 128/154/127 162/195/161
f 170/207/169 169/206/168 162/195/161 161/194/160
f 170/219/169 160/221/159 168/205/167
f 146/173/145 168/205/167 160/221/159 157/222/156
f 157/222/156 156/223/155 142/169/141 146/173/145
f 139/166/138 142/169/141 156/223/155 151/224/150
f 140/167/139 139/166/138 151/224/150 154/225/153
f 154/185/153 153/184/152 150/181/149 140/180/139
f 134/161/133 150/181/149 153/184/152 132/158/131
f 117/141/116 134/161/133 132/158/131 118/142/117
f 105/127/104 117/141/116 118/142/117 106/128/105
f 86/105/85 105/127/104 106/128/105 95/116/94
f 80/98/79 86/105/85 95/116/94 82/100/81
f 51/64/50 80/98/79 82/100/81 49/59/48
f 14/65/13 51/64/50 49/59/48 12/58/12
f 11/12/11 13/16/14 14/15/13 12/13/12
f 44/49/43 43/48/42 4/2/2 3/1/1
f 67/84/66 44/49/43 3/1/1 59/226/58
f 179/216/178 67/84/66 59/226/58 177/227/176
f 68/85/67 179/216/178 177/227/176 62/228/61
f 61/229/60 65/82/64 68/85/67 62/228/61
f 31/33/30 65/82/64 61/229/60 56/230/55
f 29/34/28 31/33/30 56/230/55 53/231/52
f 22/23/21 29/30/28 53/232/52 18/20/18
f 20/24/22 22/23/21 18/20/18 17/19/17
f 23/233/181 25/28/26 21/22/20 19/21/19
f 25/28/26 27/27/25 28/29/27 21/22/20
f 34/35/31 30/32/29 28/31/27 27/36/25
f 57/74/56 64/81/63 30/32/29 34/35/31
f 69/86/68 64/81/63 57/74/56 36/41/35
f 181/218/180 178/215/177 69/86/68 36/41/35
f 37/42/36 66/83/65 178/215/177 181/218/180
f 40/45/39 41/46/40 66/83/65 37/42/36
f 39/44/38 42/47/41 41/46/40 40/45/39
f 161/194/160 160/193/159 170/207/169
