# Blender v2.80 (sub 75) OBJ File: ''
# www.blender.org
mtllib left_leg.mtl
o wainter_waintermesh.002
v 0.031417 0.013326 0.095099
v -0.042441 -0.012002 0.093791
v 0.072176 0.014307 0.028374
v 0.050021 -0.005129 -0.047342
v -0.010298 -0.011052 -0.071132
v -0.042727 -0.004637 -0.053227
v -0.063909 -0.004133 -0.027033
v -0.074825 -0.025677 0.020942
v 0.071036 -0.032668 0.034268
v 0.031700 -0.031386 0.101135
v 0.035901 -0.103539 0.105320
v 0.069541 -0.104038 0.039694
v 0.055146 -0.048230 -0.037511
v 0.046101 -0.110121 -0.018989
v 0.002832 -0.112986 -0.040337
v -0.005575 -0.049960 -0.062139
v -0.031924 -0.108349 -0.030251
v -0.057841 -0.100165 -0.006809
v -0.065700 -0.037968 -0.009742
v -0.042842 -0.038965 -0.042435
v -0.039288 -0.043695 0.090465
v -0.032913 -0.109759 0.088702
v -0.072733 -0.047455 0.026266
v -0.066203 -0.110022 0.030427
v -0.024490 -0.187959 -0.031817
v -0.048793 -0.190935 -0.006955
v 0.046278 -0.170027 -0.028934
v 0.006064 -0.184735 -0.043640
v 0.072284 -0.171880 0.038585
v 0.041220 -0.174143 0.101218
v -0.027521 -0.182094 0.093807
v -0.055565 -0.191959 0.041212
v -0.050829 -0.223018 -0.015262
v -0.026270 -0.225081 -0.043649
v 0.007613 -0.222444 -0.057064
v 0.053734 -0.206258 -0.044064
v 0.076694 -0.215013 0.033655
v 0.045439 -0.225205 0.095294
v -0.025009 -0.233014 0.094008
v -0.056107 -0.230699 0.040526
v 0.053780 -0.392279 -0.027131
v 0.019195 -0.399605 -0.034792
v 0.016165 -0.315410 -0.051451
v 0.061694 -0.298967 -0.039217
v 0.082395 -0.291105 0.023710
v 0.081130 -0.396163 0.018729
v 0.048935 -0.309877 0.079624
v 0.054391 -0.382964 0.075095
v -0.011158 -0.321253 0.083349
v -0.001401 -0.386636 0.075188
v -0.056185 -0.316343 0.036778
v -0.041410 -0.413210 0.035874
v -0.049823 -0.319612 -0.020785
v -0.028680 -0.426893 -0.013110
v -0.004066 -0.412491 -0.029726
v -0.017556 -0.313562 -0.045367
v 0.091102 -0.496722 0.005972
v 0.051974 -0.499569 -0.031076
v 0.052319 -0.461150 -0.033561
v 0.087674 -0.457076 0.010577
v 0.010619 -0.505035 -0.034479
v 0.013297 -0.466050 -0.039191
v -0.006040 -0.502586 -0.028012
v -0.026668 -0.499405 0.004868
v -0.026982 -0.472320 -0.003758
v -0.004931 -0.471419 -0.032506
v -0.031656 -0.490343 0.050920
v -0.034871 -0.462423 0.044777
v 0.012449 -0.472928 0.084444
v 0.007837 -0.447758 0.076469
v 0.072041 -0.467872 0.081238
v 0.063450 -0.442324 0.074267
v 0.093346 -0.524116 0.011562
v 0.078430 -0.489181 0.088811
v 0.055418 -0.521187 -0.029122
v 0.010982 -0.519852 -0.040162
v -0.007807 -0.518798 -0.034631
v -0.028222 -0.517708 -0.000803
v 0.016808 -0.498061 0.098898
v -0.023355 -0.525629 0.059644
v -0.010949 -0.544755 0.136828
v 0.018960 -0.505103 0.145185
v 0.090664 -0.508229 0.122453
v 0.103070 -0.548550 0.056941
v 0.062913 -0.570141 -0.019442
v 0.016795 -0.572762 -0.029944
v -0.002210 -0.572072 -0.020991
v -0.024370 -0.564411 0.002348
v -0.017642 -0.564323 0.053132
v 0.002836 -0.578312 0.126438
v 0.109853 -0.532984 0.193267
v 0.019892 -0.524421 0.205288
v 0.092226 -0.577578 0.121949
v 0.055855 -0.583889 0.052936
v 0.026025 -0.584319 0.017358
v 0.007184 -0.583247 0.032915
v -0.002126 -0.548137 0.184587
v 0.002153 -0.566039 0.183190
v 0.032173 -0.583316 0.086523
v 0.086210 -0.562778 0.215452
v 0.033800 -0.564078 0.212981
v 0.046381 -0.582520 0.160410
v 0.077224 -0.580914 0.165703
v 0.058774 -0.581909 0.127895
v 0.010874 -0.259322 -0.062927
v 0.057838 -0.244491 -0.045646
v 0.079622 -0.252719 0.029566
v 0.047397 -0.265211 0.088266
v -0.019052 -0.274311 0.090252
v -0.057790 -0.270603 0.038838
v -0.051958 -0.262448 -0.021308
v -0.023590 -0.265141 -0.048649
v 0.049375 -0.436300 -0.028729
v 0.082313 -0.428471 0.014165
v 0.015521 -0.440347 -0.035791
v -0.002685 -0.450609 -0.032750
v -0.028979 -0.454572 -0.010558
v -0.036789 -0.440986 0.038994
v 0.003291 -0.422831 0.073983
v 0.058848 -0.416550 0.075604
v -0.011388 0.008111 0.001877
v -0.011388 0.008111 0.001877
v -0.011388 0.008111 0.001877
v -0.011388 0.008111 0.001877
v -0.011388 0.008111 0.001877
v -0.011388 0.008111 0.001877
v -0.011388 0.008111 0.001877
v -0.011388 0.008111 0.001877
vt 0.655938 0.604828
vt 0.647470 0.583839
vt 0.656183 0.584272
vt 0.662360 0.602948
vt 0.712066 0.351812
vt 0.714705 0.355026
vt 0.683677 0.388797
vt 0.676814 0.385374
vt 0.680843 0.479680
vt 0.688291 0.436180
vt 0.726501 0.446299
vt 0.719871 0.487257
vt 0.681126 0.522175
vt 0.718166 0.525312
vt 0.717875 0.555297
vt 0.678842 0.559151
vt 0.715770 0.576544
vt 0.712804 0.595504
vt 0.681935 0.603431
vt 0.676562 0.583317
vt 0.701800 0.396867
vt 0.737158 0.409084
vt 0.722279 0.361409
vt 0.748847 0.374352
vt 0.718754 0.613910
vt 0.691483 0.618264
vt 0.759548 0.577651
vt 0.759857 0.596290
vt 0.753783 0.533752
vt 0.759416 0.559581
vt 0.757716 0.492993
vt 0.762824 0.455400
vt 0.774197 0.419828
vt 0.787237 0.389537
vt 0.758007 0.621248
vt 0.776783 0.595905
vt 0.779897 0.578100
vt 0.780889 0.560690
vt 0.775399 0.537442
vt 0.781959 0.496254
vt 0.789641 0.460701
vt 0.799978 0.425090
vt 0.807341 0.392639
vt 0.777337 0.624442
vt 0.873676 0.542238
vt 0.874458 0.563419
vt 0.828399 0.559097
vt 0.823419 0.535017
vt 0.823593 0.501769
vt 0.881300 0.512266
vt 0.836299 0.468411
vt 0.877878 0.475617
vt 0.845657 0.436428
vt 0.881211 0.443991
vt 0.850841 0.401952
vt 0.898994 0.415444
vt 0.823515 0.627067
vt 0.826214 0.596601
vt 0.884552 0.596299
vt 0.875612 0.624230
vt 0.879361 0.578236
vt 0.825167 0.576012
vt 0.935859 0.529053
vt 0.931301 0.557093
vt 0.911345 0.553098
vt 0.915393 0.522835
vt 0.930383 0.579633
vt 0.909978 0.573943
vt 0.927682 0.589461
vt 0.922580 0.610653
vt 0.908476 0.604036
vt 0.911039 0.584533
vt 0.913903 0.635166
vt 0.899943 0.630081
vt 0.923075 0.419956
vt 0.937707 0.421224
vt 0.931071 0.452939
vt 0.916132 0.449995
vt 0.929068 0.485453
vt 0.913169 0.482924
vt 0.950567 0.529185
vt 0.941579 0.486063
vt 0.942905 0.557099
vt 0.938822 0.580387
vt 0.936895 0.589679
vt 0.932830 0.609753
vt 0.946842 0.455843
vt 0.957076 0.424405
vt 0.932355 0.642931
vt 0.913599 0.768352
vt 0.924807 0.792970
vt 0.903059 0.804424
vt 0.872359 0.783854
vt 0.941019 0.829220
vt 0.920882 0.837708
vt 0.920547 0.883759
vt 0.944148 0.869188
vt 0.933034 0.914680
vt 0.906961 0.909691
vt 0.925224 0.938331
vt 0.897461 0.931814
vt 0.922214 0.948968
vt 0.915876 0.965177
vt 0.891338 0.962183
vt 0.894081 0.941561
vt 0.867222 0.763113
vt 0.840174 0.790283
vt 0.840068 0.765463
vt 0.907074 0.749363
vt 0.967776 0.806562
vt 0.946744 0.775319
vt 0.974703 0.844283
vt 0.101414 0.057330
vt 0.134319 0.033120
vt 0.123365 0.081133
vt 0.087212 0.097701
vt 0.104765 0.032281
vt 0.120702 0.010401
vt 0.072191 0.025730
vt 0.091429 0.004483
vt 0.109817 0.005913
vt 0.091893 0.030474
vt 0.937091 0.763319
vt 0.938825 0.754654
vt 0.078974 0.060025
vt 0.051675 0.063181
vt 0.979376 0.790019
vt 0.962983 0.765241
vt 0.054643 0.093319
vt 0.027182 0.108235
vt 0.027457 0.084187
vt 0.989632 0.821091
vt 0.063684 0.107864
vt 0.045146 0.130797
vt 0.072196 0.086246
vt 0.647521 0.561095
vt 0.655680 0.561432
vt 0.799630 0.559886
vt 0.795244 0.536781
vt 0.802831 0.498349
vt 0.811332 0.464153
vt 0.820949 0.430216
vt 0.828027 0.396359
vt 0.797002 0.595842
vt 0.798563 0.626744
vt 0.800246 0.577197
vt 0.682469 0.619777
vt 0.656599 0.523013
vt 0.655182 0.476510
vt 0.663113 0.431403
vt 0.897728 0.550046
vt 0.899529 0.518180
vt 0.896446 0.569902
vt 0.900223 0.581101
vt 0.899118 0.599761
vt 0.889423 0.626102
vt 0.912352 0.418169
vt 0.901731 0.447202
vt 0.897753 0.479160
vt 0.678715 0.621164
vt 0.648278 0.523307
vt 0.647175 0.475766
vt 0.654982 0.430247
vn -0.2128 0.9758 -0.0267
vn -0.0499 0.9779 -0.1979
vn -0.4968 0.5209 -0.6941
vn -0.7784 0.5527 -0.2976
vn -0.2951 0.9459 0.1352
vn -0.9675 0.2273 0.1109
vn -0.5571 0.5355 0.6347
vn -0.3873 0.9118 0.1367
vn 0.9884 -0.0033 0.1515
vn 0.4759 0.0419 0.8785
vn 0.4383 0.0254 0.8985
vn 0.9920 0.0044 0.1260
vn 0.7964 -0.1550 -0.5845
vn 0.7961 -0.0773 -0.6002
vn 0.0777 -0.1339 -0.9879
vn 0.0526 -0.2696 -0.9615
vn -0.5696 -0.1355 -0.8107
vn -0.8876 -0.1295 -0.4421
vn -0.8864 -0.1568 -0.4355
vn -0.6278 -0.2366 -0.7415
vn -0.5454 -0.0315 0.8376
vn -0.5778 -0.0326 0.8155
vn -0.9665 -0.0971 0.2374
vn -0.9728 -0.0920 0.2125
vn -0.5462 0.0714 -0.8346
vn -0.9142 -0.0256 -0.4045
vn 0.7543 0.1678 -0.6347
vn -0.0126 0.1872 -0.9822
vn 0.9923 0.0800 0.0946
vn 0.4546 0.0025 0.8907
vn -0.5315 -0.0355 0.8463
vn -0.9691 -0.0473 0.2421
vn -0.9311 0.0973 -0.3514
vn -0.5629 0.1728 -0.8083
vn -0.0382 0.2184 -0.9751
vn 0.7490 0.2309 -0.6210
vn 0.9916 0.0950 0.0873
vn 0.4937 -0.0480 0.8683
vn -0.4564 -0.0829 0.8859
vn -0.9656 -0.0081 0.2599
vn 0.7073 -0.0804 -0.7024
vn 0.0734 -0.1295 -0.9889
vn 0.1037 -0.1644 -0.9809
vn 0.7574 -0.0691 -0.6493
vn 0.9994 -0.0121 0.0330
vn 0.9998 -0.0139 -0.0167
vn 0.5924 -0.0699 0.8026
vn 0.6128 -0.0245 0.7898
vn -0.3880 -0.1431 0.9105
vn -0.3957 -0.1091 0.9119
vn -0.9492 -0.1458 0.2788
vn -0.9526 -0.1624 0.2574
vn -0.8868 -0.1474 -0.4379
vn -0.8732 -0.1559 -0.4617
vn -0.4214 -0.1409 -0.8959
vn -0.4233 -0.1601 -0.8917
vn 0.9549 0.1257 -0.2689
vn 0.5019 0.0001 -0.8649
vn 0.5316 0.0743 -0.8437
vn 0.9706 0.1683 -0.1719
vn -0.0026 0.0111 -0.9999
vn 0.0047 -0.0122 -0.9999
vn -0.7014 0.0437 -0.7114
vn -0.9739 -0.0721 -0.2154
vn -0.9328 -0.1203 -0.3398
vn -0.6239 -0.0937 -0.7758
vn -0.9048 0.0198 0.4254
vn -0.9068 -0.0055 0.4215
vn -0.3673 0.2523 0.8952
vn -0.3307 0.1273 0.9351
vn 0.7284 0.3289 0.6010
vn 0.6860 0.2054 0.6980
vn 0.9389 0.0315 -0.3428
vn 0.7134 0.6464 0.2706
vn 0.5538 -0.1249 -0.8233
vn 0.0296 -0.1031 -0.9942
vn -0.6709 -0.0821 -0.7370
vn -0.9708 -0.0895 -0.2226
vn -0.4786 0.7182 0.5051
vn -0.9658 0.0211 0.2585
vn -0.9590 0.2055 0.1952
vn -0.2395 0.9235 0.2998
vn 0.7139 0.6822 0.1580
vn 0.9517 -0.2578 -0.1669
vn 0.5623 -0.6077 -0.5608
vn 0.0654 -0.6352 -0.7696
vn -0.5793 -0.6302 -0.5169
vn -0.8840 -0.4375 -0.1647
vn -0.8219 -0.5628 0.0879
vn -0.6144 -0.7791 0.1245
vn 0.7148 0.5385 0.4461
vn -0.1440 0.8243 0.5475
vn 0.8728 -0.4861 -0.0450
vn 0.3976 -0.9097 -0.1194
vn 0.0526 -0.9870 -0.1521
vn -0.2967 -0.9549 -0.0102
vn -0.9095 0.2113 0.3579
vn -0.5756 -0.7381 0.3520
vn -0.1362 -0.9903 0.0261
vn 0.4103 -0.3602 0.8378
vn -0.1339 -0.4322 0.8918
vn -0.0870 -0.9778 0.1908
vn 0.4491 -0.8701 0.2031
vn 0.0260 -0.9996 0.0138
vn 0.0281 0.9603 -0.2516
vn -0.0357 0.5450 -0.8377
vn 0.0587 -0.0434 -0.9973
vn 0.7657 0.0521 -0.6410
vn 0.9960 0.0367 0.0820
vn 0.5203 -0.0992 0.8482
vn -0.4108 -0.1461 0.8999
vn -0.9607 -0.0621 0.2707
vn -0.9224 -0.0021 -0.3863
vn -0.5164 -0.0367 -0.8556
vn 0.5172 0.4776 -0.7103
vn 0.7316 0.6804 0.0432
vn 0.2181 0.6721 0.7076
vn 0.5730 0.0984 -0.8136
vn 0.9861 0.1091 -0.1257
vn 0.0256 0.0752 -0.9968
vn -0.4979 0.0044 -0.8672
vn -0.8948 -0.0953 -0.4363
vn -0.9197 -0.0705 0.3863
vn -0.3493 -0.0142 0.9369
vn 0.5892 0.0586 0.8059
vn 0.0064 0.9660 -0.2518
vn -0.0415 0.9891 -0.1416
vn -0.2703 0.9597 0.0704
usemtl None.003
s 1
f 126/1/1 127/2/2 6/3/3 7/4/4
f 128/5/5 8/6/6 2/7/7 122/8/8
f 9/9/9 10/10/10 11/11/11 12/12/12
f 13/13/13 9/9/9 12/12/12 14/14/14
f 15/15/15 16/16/16 13/13/13 14/14/14
f 17/17/17 18/18/18 19/19/19 20/20/20
f 11/11/11 10/10/10 21/21/21 22/22/22
f 22/22/22 21/21/21 23/23/23 24/24/24
f 18/18/18 24/25/24 23/26/23 19/19/19
f 25/27/25 26/28/26 18/18/18 17/17/17
f 27/29/27 28/30/28 15/15/15 14/14/14
f 27/29/27 14/14/14 12/12/12 29/31/29
f 30/32/30 29/31/29 12/12/12 11/11/11
f 31/33/31 30/32/30 11/11/11 22/22/22
f 22/22/22 24/24/24 32/34/32 31/33/31
f 26/28/26 32/35/32 24/25/24 18/18/18
f 33/36/33 26/28/26 25/27/25 34/37/34
f 35/38/35 28/30/28 27/29/27 36/39/36
f 36/39/36 27/29/27 29/31/29 37/40/37
f 37/40/37 29/31/29 30/32/30 38/41/38
f 30/32/30 31/33/31 39/42/39 38/41/38
f 39/42/39 31/33/31 32/34/32 40/43/40
f 32/35/32 26/28/26 33/36/33 40/44/40
f 41/45/41 42/46/42 43/47/43 44/48/44
f 44/48/44 45/49/45 46/50/46 41/45/41
f 45/49/45 47/51/47 48/52/48 46/50/46
f 47/51/47 49/53/49 50/54/50 48/52/48
f 49/53/49 51/55/51 52/56/52 50/54/50
f 51/57/51 53/58/53 54/59/54 52/60/52
f 55/61/55 54/59/54 53/58/53 56/62/56
f 57/63/57 58/64/58 59/65/59 60/66/60
f 58/64/58 61/67/61 62/68/62 59/65/59
f 63/69/63 64/70/64 65/71/65 66/72/66
f 64/70/64 67/73/67 68/74/68 65/71/65
f 68/75/68 67/76/67 69/77/69 70/78/70
f 71/79/71 72/80/72 70/78/70 69/77/69
f 57/63/57 60/66/60 72/80/72 71/79/71
f 73/81/73 57/63/57 71/79/71 74/82/74
f 57/63/57 73/81/73 75/83/75 58/64/58
f 58/64/58 75/83/75 76/84/76 61/67/61
f 77/85/77 78/86/78 64/70/64 63/69/63
f 69/77/69 79/87/79 74/82/74 71/79/71
f 67/76/67 80/88/80 79/87/79 69/77/69
f 64/70/64 78/86/78 80/89/80 67/73/67
f 81/90/81 82/91/82 79/92/79 80/93/80
f 79/92/79 82/91/82 83/94/83 74/95/74
f 73/96/73 74/95/74 83/94/83 84/97/84
f 85/98/85 75/99/75 73/96/73 84/97/84
f 85/98/85 86/100/86 76/101/76 75/99/75
f 87/102/87 88/103/88 78/104/78 77/105/77
f 89/106/89 80/93/80 78/107/78 88/108/88
f 90/109/90 81/90/81 80/93/80 89/106/89
f 91/110/91 83/94/83 82/91/82 92/111/92
f 83/94/83 91/110/91 93/112/93 84/97/84
f 94/113/94 85/114/85 84/115/84 93/116/93
f 95/117/95 86/118/86 85/114/85 94/113/94
f 89/119/89 88/120/88 87/121/87 96/122/96
f 97/123/97 92/111/92 82/91/82 81/90/81
f 81/90/81 90/109/90 98/124/98 97/123/97
f 99/125/99 90/126/90 89/119/89 96/122/96
f 100/127/100 91/110/91 92/111/92 101/128/101
f 101/128/101 92/111/92 97/123/97 98/124/98
f 102/129/102 101/130/101 98/131/98 90/126/90
f 93/112/93 91/110/91 100/127/100 103/132/103
f 103/133/103 100/134/100 101/130/101 102/129/102
f 104/135/104 93/116/93 103/133/103 102/129/102
f 94/113/94 99/125/99 96/122/96 95/117/95
f 87/121/87 86/118/86 95/117/95 96/122/96
f 86/100/86 87/102/87 77/105/77 76/101/76
f 61/67/61 76/84/76 77/85/77 63/69/63
f 61/67/61 63/69/63 66/72/66 62/68/62
f 42/46/42 55/61/55 56/62/56 43/47/43
f 34/37/34 25/27/25 28/30/28 35/38/35
f 28/30/28 25/27/25 17/17/17 15/15/15
f 15/15/15 17/17/17 20/20/20 16/16/16
f 127/2/2 125/136/105 5/137/106 6/3/3
f 90/126/90 99/125/99 104/135/104 102/129/102
f 93/116/93 104/135/104 99/125/99 94/113/94
f 105/138/107 35/38/35 36/39/36 106/139/108
f 106/139/108 36/39/36 37/40/37 107/140/109
f 107/140/109 37/40/37 38/41/38 108/141/110
f 39/42/39 109/142/111 108/141/110 38/41/38
f 109/142/111 39/42/39 40/43/40 110/143/112
f 33/36/33 111/144/113 110/145/112 40/44/40
f 111/144/113 33/36/33 34/37/34 112/146/114
f 112/146/114 34/37/34 35/38/35 105/138/107
f 44/48/44 43/47/43 105/138/107 106/139/108
f 45/49/45 44/48/44 106/139/108 107/140/109
f 47/51/47 45/49/45 107/140/109 108/141/110
f 109/142/111 49/53/49 47/51/47 108/141/110
f 51/55/51 49/53/49 109/142/111 110/143/112
f 111/144/113 53/58/53 51/57/51 110/145/112
f 56/62/56 53/58/53 111/144/113 112/146/114
f 43/47/43 56/62/56 112/146/114 105/138/107
f 8/6/6 23/23/23 21/21/21 2/7/7
f 19/19/19 23/26/23 8/147/6 7/4/4
f 6/3/3 20/20/20 19/19/19 7/4/4
f 5/137/106 16/16/16 20/20/20 6/3/3
f 16/16/16 5/137/106 4/148/115 13/13/13
f 13/13/13 4/148/115 3/149/116 9/9/9
f 9/9/9 3/149/116 1/150/117 10/10/10
f 10/10/10 1/150/117 2/7/7 21/21/21
f 59/65/59 113/151/118 114/152/119 60/66/60
f 62/68/62 115/153/120 113/151/118 59/65/59
f 66/72/66 116/154/121 115/153/120 62/68/62
f 65/71/65 117/155/122 116/154/121 66/72/66
f 68/74/68 118/156/123 117/155/122 65/71/65
f 118/157/123 68/75/68 70/78/70 119/158/124
f 72/80/72 120/159/125 119/158/124 70/78/70
f 60/66/60 114/152/119 120/159/125 72/80/72
f 115/153/120 42/46/42 41/45/41 113/151/118
f 116/154/121 55/61/55 42/46/42 115/153/120
f 117/155/122 54/59/54 55/61/55 116/154/121
f 118/156/123 52/60/52 54/59/54 117/155/122
f 50/54/50 52/56/52 118/157/123 119/158/124
f 120/159/125 48/52/48 50/54/50 119/158/124
f 114/152/119 46/50/46 48/52/48 120/159/125
f 113/151/118 41/45/41 46/50/46 114/152/119
f 8/147/6 128/160/5 126/1/1 7/4/4
f 5/137/106 125/136/105 124/161/126 4/148/115
f 4/148/115 124/161/126 123/162/127 3/149/116
f 3/149/116 123/162/127 121/163/128 1/150/117
f 1/150/117 121/163/128 122/8/8 2/7/7
