# Blender v2.80 (sub 75) OBJ File: ''
# www.blender.org
mtllib right_leg.mtl
o wainter_waintermesh.002
v -0.047298 0.004425 0.096350
v 0.026560 -0.020903 0.095042
v -0.088057 0.005406 0.029625
v -0.065902 -0.014030 -0.046091
v -0.005583 -0.019953 -0.069881
v 0.048028 -0.013034 -0.025782
v 0.026846 -0.013538 -0.051976
v 0.058944 -0.034578 0.022193
v -0.086917 -0.041569 0.035519
v -0.085422 -0.112939 0.040945
v -0.051782 -0.112440 0.106571
v -0.047581 -0.040287 0.102386
v -0.071027 -0.057131 -0.036260
v -0.061982 -0.119022 -0.017738
v -0.018713 -0.121887 -0.039086
v -0.010306 -0.058861 -0.060888
v 0.016043 -0.117250 -0.029000
v 0.026961 -0.047866 -0.041184
v 0.049819 -0.046869 -0.008491
v 0.041960 -0.109066 -0.005558
v 0.017032 -0.118660 0.089953
v 0.023407 -0.052596 0.091716
v 0.050322 -0.118923 0.031678
v 0.056852 -0.056356 0.027517
v 0.008609 -0.196860 -0.030566
v 0.032912 -0.199836 -0.005704
v -0.062159 -0.178928 -0.027683
v -0.021945 -0.193636 -0.042389
v -0.088165 -0.180781 0.039836
v -0.057101 -0.183044 0.102469
v 0.011640 -0.190995 0.095058
v 0.039684 -0.200860 0.042463
v 0.034948 -0.231919 -0.014011
v 0.010389 -0.233982 -0.042398
v -0.023494 -0.231345 -0.055813
v -0.069615 -0.215159 -0.042813
v -0.092575 -0.223914 0.034906
v -0.061320 -0.234106 0.096545
v 0.009128 -0.241915 0.095259
v 0.040226 -0.239600 0.041777
v -0.069661 -0.401180 -0.025880
v -0.077575 -0.307868 -0.037966
v -0.032046 -0.324311 -0.050200
v -0.035076 -0.408506 -0.033541
v -0.097011 -0.405064 0.019980
v -0.098276 -0.300006 0.024961
v -0.070272 -0.391865 0.076346
v -0.064816 -0.318778 0.080875
v -0.014480 -0.395537 0.076439
v -0.004723 -0.330154 0.084600
v 0.025529 -0.422111 0.037125
v 0.040304 -0.325244 0.038029
v 0.012799 -0.435794 -0.011859
v 0.033942 -0.328513 -0.019534
v -0.011815 -0.421392 -0.028475
v 0.001675 -0.322463 -0.044116
v -0.106983 -0.505623 0.007223
v -0.103555 -0.465977 0.011828
v -0.068200 -0.470051 -0.032310
v -0.067855 -0.508470 -0.029825
v -0.029178 -0.474951 -0.037940
v -0.026500 -0.513936 -0.033228
v -0.009841 -0.511487 -0.026761
v -0.010950 -0.480320 -0.031255
v 0.011101 -0.481221 -0.002507
v 0.010787 -0.508306 0.006119
v 0.018990 -0.471324 0.046028
v 0.015775 -0.499244 0.052171
v -0.023718 -0.456659 0.077720
v -0.028330 -0.481829 0.085695
v -0.087922 -0.476773 0.082489
v -0.079331 -0.451225 0.075518
v -0.109227 -0.533017 0.012813
v -0.094311 -0.498082 0.090062
v -0.071299 -0.530088 -0.027871
v -0.026863 -0.528753 -0.038911
v -0.008074 -0.527699 -0.033380
v 0.012341 -0.526609 0.000448
v -0.032689 -0.506962 0.100149
v 0.007474 -0.534530 0.060895
v -0.004932 -0.553656 0.138079
v -0.034841 -0.514004 0.146436
v -0.106545 -0.517130 0.123704
v -0.118951 -0.557451 0.058192
v -0.078794 -0.579042 -0.018191
v -0.032676 -0.581663 -0.028693
v -0.013671 -0.580973 -0.019740
v 0.008489 -0.573312 0.003599
v 0.001761 -0.573224 0.054383
v -0.018717 -0.587213 0.127689
v -0.125734 -0.541885 0.194518
v -0.035773 -0.533322 0.206539
v -0.108107 -0.586479 0.123200
v -0.071736 -0.592790 0.054187
v -0.041906 -0.593220 0.018609
v -0.023065 -0.592148 0.034166
v -0.013755 -0.557038 0.185838
v -0.018034 -0.574940 0.184441
v -0.048054 -0.592217 0.087774
v -0.102091 -0.571679 0.216703
v -0.049681 -0.572979 0.214232
v -0.062262 -0.591421 0.161661
v -0.093105 -0.589815 0.166954
v -0.074655 -0.590810 0.129146
v -0.026755 -0.268223 -0.061676
v -0.073719 -0.253392 -0.044395
v -0.095503 -0.261620 0.030817
v -0.063278 -0.274112 0.089517
v 0.003171 -0.283212 0.091503
v 0.041909 -0.279504 0.040089
v 0.036077 -0.271349 -0.020057
v 0.007709 -0.274042 -0.047398
v -0.098194 -0.437372 0.015416
v -0.065256 -0.445201 -0.027478
v -0.031402 -0.449248 -0.034540
v -0.013196 -0.459510 -0.031499
v 0.013098 -0.463473 -0.009307
v 0.020908 -0.449887 0.040245
v -0.019172 -0.431732 0.075234
v -0.074729 -0.425451 0.076855
v -0.003993 0.003947 0.001968
v -0.003993 0.003947 0.001968
v -0.003993 0.003947 0.001968
v -0.003993 0.003947 0.001968
v -0.003993 0.003947 0.001968
v -0.003993 0.003947 0.001968
v -0.003993 0.003947 0.001968
v -0.003993 0.003947 0.001968
vt 0.641907 0.642257
vt 0.647210 0.650804
vt 0.631326 0.659911
vt 0.622321 0.651791
vt 0.708698 0.320361
vt 0.659511 0.301880
vt 0.667261 0.295050
vt 0.711333 0.314215
vt 0.634737 0.213629
vt 0.666198 0.193703
vt 0.687535 0.226135
vt 0.655158 0.250088
vt 0.622446 0.177660
vt 0.650658 0.164817
vt 0.649897 0.725753
vt 0.628334 0.742866
vt 0.605195 0.719802
vt 0.629734 0.693899
vt 0.664755 0.711571
vt 0.644670 0.675819
vt 0.662777 0.665555
vt 0.678225 0.697151
vt 0.713166 0.254582
vt 0.682744 0.281662
vt 0.739922 0.279633
vt 0.717213 0.304139
vt 0.682208 0.662262
vt 0.698797 0.691114
vt 0.688944 0.751441
vt 0.705889 0.741220
vt 0.648305 0.766939
vt 0.672726 0.760961
vt 0.671119 0.140950
vt 0.695114 0.170475
vt 0.716804 0.200109
vt 0.743253 0.225292
vt 0.769644 0.244959
vt 0.728426 0.725782
vt 0.714725 0.757549
vt 0.699608 0.770383
vt 0.683233 0.780729
vt 0.656695 0.786657
vt 0.682614 0.122847
vt 0.712510 0.153810
vt 0.737534 0.180372
vt 0.763997 0.205907
vt 0.786158 0.230560
vt 0.741650 0.742534
vt 0.721336 0.870543
vt 0.682902 0.833757
vt 0.708511 0.823341
vt 0.738852 0.860432
vt 0.723931 0.094650
vt 0.764733 0.066575
vt 0.786294 0.086112
vt 0.743068 0.124404
vt 0.804225 0.118208
vt 0.772871 0.146856
vt 0.824738 0.143940
vt 0.798159 0.169903
vt 0.853828 0.159630
vt 0.819844 0.197603
vt 0.768184 0.783697
vt 0.792952 0.832653
vt 0.772355 0.853782
vt 0.741967 0.801182
vt 0.753933 0.857541
vt 0.722408 0.811100
vt 0.820598 0.041985
vt 0.807664 0.059602
vt 0.785971 0.038233
vt 0.799339 0.022401
vt 0.757966 0.915386
vt 0.745546 0.898719
vt 0.764279 0.887879
vt 0.778640 0.904472
vt 0.786393 0.897355
vt 0.774408 0.883976
vt 0.790775 0.872556
vt 0.803298 0.882694
vt 0.810473 0.853038
vt 0.821659 0.863764
vt 0.871738 0.141689
vt 0.850618 0.120097
vt 0.861362 0.109687
vt 0.883187 0.132282
vt 0.841051 0.082895
vt 0.829276 0.093795
vt 0.832753 0.032336
vt 0.851360 0.074593
vt 0.808389 0.014467
vt 0.783080 0.912163
vt 0.762425 0.926591
vt 0.791031 0.905921
vt 0.807266 0.892544
vt 0.872704 0.098047
vt 0.897578 0.118729
vt 0.837326 0.876992
vt 0.638904 0.826891
vt 0.660063 0.862765
vt 0.624853 0.860302
vt 0.616404 0.839040
vt 0.591515 0.872646
vt 0.583197 0.854329
vt 0.562226 0.906694
vt 0.554184 0.881252
vt 0.533623 0.921915
vt 0.556094 0.934465
vt 0.549430 0.956862
vt 0.524751 0.944396
vt 0.520396 0.954190
vt 0.545899 0.966220
vt 0.535135 0.983255
vt 0.515048 0.970189
vt 0.676777 0.850401
vt 0.695524 0.868876
vt 0.679987 0.887210
vt 0.655699 0.815749
vt 0.576606 0.819506
vt 0.609913 0.809707
vt 0.548090 0.842861
vt 0.826617 0.731922
vt 0.852848 0.697945
vt 0.858664 0.737278
vt 0.824375 0.772629
vt 0.807547 0.748304
vt 0.797887 0.773608
vt 0.784310 0.724568
vt 0.799026 0.738514
vt 0.788192 0.766917
vt 0.776959 0.752289
vt 0.624061 0.807798
vt 0.628412 0.799952
vt 0.816722 0.711602
vt 0.804552 0.686940
vt 0.576549 0.798972
vt 0.603661 0.791971
vt 0.831433 0.673021
vt 0.808941 0.655216
vt 0.828939 0.641885
vt 0.549908 0.816213
vt 0.848519 0.672693
vt 0.857666 0.644639
vt 0.835042 0.691601
vt 0.616997 0.675883
vt 0.609260 0.668626
vt 0.692259 0.797859
vt 0.666081 0.806749
vt 0.698625 0.109744
vt 0.727916 0.139544
vt 0.754046 0.164655
vt 0.779934 0.189212
vt 0.802565 0.215539
vt 0.754887 0.761025
vt 0.725553 0.775929
vt 0.709594 0.788960
vt 0.675367 0.653149
vt 0.592652 0.703076
vt 0.613535 0.223856
vt 0.603268 0.184825
vt 0.632937 0.261696
vt 0.797724 0.072051
vt 0.778460 0.049224
vt 0.738366 0.887108
vt 0.754787 0.877180
vt 0.766368 0.875508
vt 0.782497 0.865822
vt 0.801763 0.844937
vt 0.863675 0.149440
vt 0.840194 0.130112
vt 0.818759 0.104872
vt 0.671868 0.647305
vt 0.586706 0.696216
vt 0.604419 0.227569
vt 0.594030 0.187388
vt 0.623209 0.265685
vn 0.3336 0.9403 0.0499
vn 0.7960 0.5221 -0.3063
vn 0.5062 0.4986 -0.7036
vn 0.0998 0.9609 -0.2544
vn 0.4688 0.8575 0.1747
vn 0.4161 0.9008 0.1039
vn 0.5478 0.5235 0.6526
vn 0.9550 0.2337 0.1828
vn -0.9884 -0.0033 0.1515
vn -0.9920 0.0044 0.1260
vn -0.4383 0.0254 0.8985
vn -0.4759 0.0419 0.8785
vn -0.7964 -0.1549 -0.5846
vn -0.7961 -0.0773 -0.6002
vn -0.0777 -0.1339 -0.9879
vn -0.0526 -0.2696 -0.9615
vn 0.5696 -0.1355 -0.8107
vn 0.6278 -0.2366 -0.7415
vn 0.8864 -0.1568 -0.4355
vn 0.8876 -0.1295 -0.4421
vn 0.5778 -0.0326 0.8155
vn 0.5454 -0.0315 0.8376
vn 0.9728 -0.0920 0.2125
vn 0.9665 -0.0971 0.2374
vn 0.5462 0.0714 -0.8346
vn 0.9142 -0.0256 -0.4045
vn -0.7543 0.1678 -0.6347
vn 0.0126 0.1872 -0.9822
vn -0.9923 0.0800 0.0946
vn -0.4546 0.0025 0.8907
vn 0.5315 -0.0355 0.8463
vn 0.9691 -0.0473 0.2421
vn 0.9311 0.0973 -0.3514
vn 0.5629 0.1728 -0.8083
vn 0.0382 0.2184 -0.9751
vn -0.7490 0.2309 -0.6210
vn -0.9916 0.0950 0.0873
vn -0.4937 -0.0480 0.8683
vn 0.4564 -0.0829 0.8859
vn 0.9656 -0.0081 0.2599
vn -0.7073 -0.0804 -0.7024
vn -0.7574 -0.0691 -0.6493
vn -0.1037 -0.1643 -0.9809
vn -0.0734 -0.1295 -0.9889
vn -0.9998 -0.0139 -0.0167
vn -0.9994 -0.0121 0.0330
vn -0.6128 -0.0245 0.7898
vn -0.5924 -0.0699 0.8026
vn 0.3957 -0.1091 0.9119
vn 0.3880 -0.1431 0.9105
vn 0.9526 -0.1624 0.2574
vn 0.9492 -0.1458 0.2788
vn 0.8732 -0.1559 -0.4617
vn 0.8868 -0.1474 -0.4379
vn 0.4214 -0.1409 -0.8959
vn 0.4233 -0.1601 -0.8917
vn -0.9549 0.1257 -0.2689
vn -0.9706 0.1683 -0.1719
vn -0.5316 0.0743 -0.8437
vn -0.5019 0.0001 -0.8649
vn -0.0047 -0.0122 -0.9999
vn 0.0026 0.0111 -0.9999
vn 0.7014 0.0437 -0.7114
vn 0.6239 -0.0937 -0.7758
vn 0.9328 -0.1203 -0.3398
vn 0.9739 -0.0721 -0.2154
vn 0.9068 -0.0055 0.4215
vn 0.9048 0.0198 0.4254
vn 0.3307 0.1273 0.9351
vn 0.3673 0.2523 0.8952
vn -0.7284 0.3289 0.6010
vn -0.6860 0.2054 0.6980
vn -0.9389 0.0315 -0.3428
vn -0.7134 0.6464 0.2706
vn -0.5538 -0.1249 -0.8233
vn -0.0296 -0.1031 -0.9942
vn 0.6709 -0.0821 -0.7370
vn 0.9708 -0.0895 -0.2226
vn 0.4786 0.7182 0.5051
vn 0.9658 0.0211 0.2585
vn 0.9590 0.2055 0.1952
vn 0.2395 0.9235 0.2998
vn -0.7139 0.6822 0.1580
vn -0.9517 -0.2578 -0.1669
vn -0.5623 -0.6077 -0.5608
vn -0.0654 -0.6352 -0.7696
vn 0.5793 -0.6302 -0.5169
vn 0.8840 -0.4375 -0.1647
vn 0.8219 -0.5628 0.0879
vn 0.6144 -0.7791 0.1245
vn -0.7148 0.5385 0.4461
vn 0.1440 0.8243 0.5475
vn -0.8728 -0.4861 -0.0450
vn -0.3976 -0.9097 -0.1194
vn -0.0526 -0.9870 -0.1521
vn 0.2967 -0.9549 -0.0102
vn 0.9095 0.2113 0.3579
vn 0.5756 -0.7381 0.3520
vn 0.1362 -0.9903 0.0261
vn -0.4103 -0.3602 0.8378
vn 0.1339 -0.4322 0.8918
vn 0.0870 -0.9778 0.1908
vn -0.4491 -0.8701 0.2031
vn -0.0260 -0.9996 0.0138
vn 0.1175 0.5190 -0.8466
vn -0.0222 0.9423 -0.3130
vn -0.0587 -0.0434 -0.9973
vn -0.7657 0.0521 -0.6410
vn -0.9960 0.0366 0.0819
vn -0.5203 -0.0992 0.8482
vn 0.4108 -0.1461 0.8999
vn 0.9607 -0.0621 0.2707
vn 0.9224 -0.0014 -0.3862
vn 0.5164 -0.0367 -0.8556
vn -0.5190 0.4787 -0.7082
vn -0.7469 0.6632 0.0484
vn -0.2280 0.6525 0.7226
vn -0.9861 0.1091 -0.1257
vn -0.5730 0.0985 -0.8136
vn -0.0256 0.0752 -0.9968
vn 0.4979 0.0044 -0.8672
vn 0.8948 -0.0953 -0.4363
vn 0.9197 -0.0705 0.3863
vn 0.3493 -0.0142 0.9369
vn -0.5892 0.0585 0.8059
vn -0.0511 0.9536 -0.2908
vn -0.0267 0.9906 -0.1334
vn 0.1734 0.9816 0.0746
usemtl None.003
s 1
f 126/1/1 6/2/2 7/3/3 127/4/4
f 128/5/5 122/6/6 2/7/7 8/8/8
f 9/9/9 10/10/10 11/11/11 12/12/12
f 13/13/13 14/14/14 10/10/10 9/9/9
f 15/15/15 14/16/14 13/17/13 16/18/16
f 17/19/17 18/20/18 19/21/19 20/22/20
f 11/11/11 21/23/21 22/24/22 12/12/12
f 21/23/21 23/25/23 24/26/24 22/24/22
f 20/22/20 19/21/19 24/27/24 23/28/23
f 25/29/25 17/19/17 20/22/20 26/30/26
f 27/31/27 14/16/14 15/15/15 28/32/28
f 27/33/27 29/34/29 10/10/10 14/14/14
f 30/35/30 11/11/11 10/10/10 29/34/29
f 31/36/31 21/23/21 11/11/11 30/35/30
f 21/23/21 31/36/31 32/37/32 23/25/23
f 26/30/26 20/22/20 23/28/23 32/38/32
f 33/39/33 34/40/34 25/29/25 26/30/26
f 35/41/35 36/42/36 27/31/27 28/32/28
f 36/43/36 37/44/37 29/34/29 27/33/27
f 37/44/37 38/45/38 30/35/30 29/34/29
f 30/35/30 38/45/38 39/46/39 31/36/31
f 39/46/39 40/47/40 32/37/32 31/36/31
f 32/38/32 40/48/40 33/39/33 26/30/26
f 41/49/41 42/50/42 43/51/43 44/52/44
f 42/53/42 41/54/41 45/55/45 46/56/46
f 46/56/46 45/55/45 47/57/47 48/58/48
f 48/58/48 47/57/47 49/59/49 50/60/50
f 50/60/50 49/59/49 51/61/51 52/62/52
f 52/63/52 51/64/51 53/65/53 54/66/54
f 55/67/55 56/68/56 54/66/54 53/65/53
f 57/69/57 58/70/58 59/71/59 60/72/60
f 60/73/60 59/74/59 61/75/61 62/76/62
f 63/77/63 64/78/64 65/79/65 66/80/66
f 66/80/66 65/79/65 67/81/67 68/82/68
f 67/83/67 69/84/69 70/85/70 68/86/68
f 71/87/71 70/85/70 69/84/69 72/88/72
f 57/69/57 71/87/71 72/88/72 58/70/58
f 73/89/73 74/90/74 71/87/71 57/69/57
f 57/69/57 60/72/60 75/91/75 73/89/73
f 60/73/60 62/76/62 76/92/76 75/93/75
f 77/94/77 63/77/63 66/80/66 78/95/78
f 70/85/70 71/87/71 74/90/74 79/96/79
f 68/86/68 70/85/70 79/96/79 80/97/80
f 66/80/66 68/82/68 80/98/80 78/95/78
f 81/99/81 80/100/80 79/101/79 82/102/82
f 79/101/79 74/103/74 83/104/83 82/102/82
f 73/105/73 84/106/84 83/104/83 74/103/74
f 85/107/85 84/106/84 73/105/73 75/108/75
f 85/107/85 75/108/75 76/109/76 86/110/86
f 87/111/87 77/112/77 78/113/78 88/114/88
f 89/115/89 88/116/88 78/117/78 80/100/80
f 90/118/90 89/115/89 80/100/80 81/99/81
f 91/119/91 92/120/92 82/102/82 83/104/83
f 83/104/83 84/106/84 93/121/93 91/119/91
f 94/122/94 93/123/93 84/124/84 85/125/85
f 95/126/95 94/122/94 85/125/85 86/127/86
f 89/128/89 96/129/96 87/130/87 88/131/88
f 97/132/97 81/99/81 82/102/82 92/120/92
f 81/99/81 97/132/97 98/133/98 90/118/90
f 99/134/99 96/129/96 89/128/89 90/135/90
f 100/136/100 101/137/101 92/120/92 91/119/91
f 101/137/101 98/133/98 97/132/97 92/120/92
f 102/138/102 90/135/90 98/139/98 101/140/101
f 93/121/93 103/141/103 100/136/100 91/119/91
f 103/142/103 102/138/102 101/140/101 100/143/100
f 104/144/104 102/138/102 103/142/103 93/123/93
f 94/122/94 95/126/95 96/129/96 99/134/99
f 87/130/87 96/129/96 95/126/95 86/127/86
f 86/110/86 76/109/76 77/112/77 87/111/87
f 62/76/62 63/77/63 77/94/77 76/92/76
f 62/76/62 61/75/61 64/78/64 63/77/63
f 44/52/44 43/51/43 56/68/56 55/67/55
f 34/40/34 35/41/35 28/32/28 25/29/25
f 28/32/28 15/15/15 17/19/17 25/29/25
f 15/15/15 16/18/16 18/20/18 17/19/17
f 127/4/4 7/3/3 5/145/105 125/146/106
f 90/135/90 102/138/102 104/144/104 99/134/99
f 93/123/93 94/122/94 99/134/99 104/144/104
f 105/147/107 106/148/108 36/42/36 35/41/35
f 106/149/108 107/150/109 37/44/37 36/43/36
f 107/150/109 108/151/110 38/45/38 37/44/37
f 39/46/39 38/45/38 108/151/110 109/152/111
f 109/152/111 110/153/112 40/47/40 39/46/39
f 33/39/33 40/48/40 110/154/112 111/155/113
f 111/155/113 112/156/114 34/40/34 33/39/33
f 112/156/114 105/147/107 35/41/35 34/40/34
f 42/50/42 106/148/108 105/147/107 43/51/43
f 46/56/46 107/150/109 106/149/108 42/53/42
f 48/58/48 108/151/110 107/150/109 46/56/46
f 109/152/111 108/151/110 48/58/48 50/60/50
f 52/62/52 110/153/112 109/152/111 50/60/50
f 111/155/113 110/154/112 52/63/52 54/66/54
f 56/68/56 112/156/114 111/155/113 54/66/54
f 43/51/43 105/147/107 112/156/114 56/68/56
f 8/8/8 2/7/7 22/24/22 24/26/24
f 19/21/19 6/2/2 8/157/8 24/27/24
f 7/3/3 6/2/2 19/21/19 18/20/18
f 5/145/105 7/3/3 18/20/18 16/18/16
f 16/18/16 13/17/13 4/158/115 5/145/105
f 13/13/13 9/9/9 3/159/116 4/160/115
f 9/9/9 12/12/12 1/161/117 3/159/116
f 12/12/12 22/24/22 2/7/7 1/161/117
f 59/71/59 58/70/58 113/162/118 114/163/119
f 61/75/61 59/74/59 114/164/119 115/165/120
f 64/78/64 61/75/61 115/165/120 116/166/121
f 65/79/65 64/78/64 116/166/121 117/167/122
f 67/81/67 65/79/65 117/167/122 118/168/123
f 118/169/123 119/170/124 69/84/69 67/83/67
f 72/88/72 69/84/69 119/170/124 120/171/125
f 58/70/58 72/88/72 120/171/125 113/162/118
f 115/165/120 114/164/119 41/49/41 44/52/44
f 116/166/121 115/165/120 44/52/44 55/67/55
f 117/167/122 116/166/121 55/67/55 53/65/53
f 118/168/123 117/167/122 53/65/53 51/64/51
f 49/59/49 119/170/124 118/169/123 51/61/51
f 120/171/125 119/170/124 49/59/49 47/57/47
f 113/162/118 120/171/125 47/57/47 45/55/45
f 114/163/119 113/162/118 45/55/45 41/54/41
f 8/157/8 6/2/2 126/1/1 128/172/5
f 5/145/105 4/158/115 124/173/126 125/146/106
f 4/160/115 3/159/116 123/174/127 124/175/126
f 3/159/116 1/161/117 121/176/128 123/174/127
f 1/161/117 2/7/7 122/6/6 121/176/128
